<svg width="272" height="48" viewBox="0 0 272 48" fill="none" xmlns="http://www.w3.org/2000/svg">
<path d="M44 7H4C2.343 7 1 8.343 1 10V38C1 39.657 2.343 41 4 41H44C45.657 41 47 39.657 47 38V10C47 8.343 45.657 7 44 7Z" fill="white"/>
<path d="M30.292 19.2031H27.492C27.301 19.2031 27.138 19.3421 27.108 19.5311L25.976 26.7111C25.954 26.8531 26.063 26.9811 26.207 26.9811H27.644C27.778 26.9811 27.892 26.8831 27.913 26.7511L28.234 24.7151C28.264 24.5261 28.427 24.3871 28.618 24.3871H29.504C31.348 24.3871 32.413 23.4941 32.691 21.7251C32.816 20.9511 32.696 20.3431 32.334 19.9181C31.935 19.4511 31.229 19.2031 30.292 19.2031ZM30.615 21.8261C30.462 22.8311 29.694 22.8311 28.952 22.8311H28.53L28.826 20.9541C28.844 20.8411 28.942 20.7571 29.057 20.7571C29.672 20.7571 30.212 20.7321 30.48 21.0451C30.627 21.2181 30.671 21.4731 30.615 21.8261Z" fill="#009EE3"/>
<path d="M10.32 19.2031H7.52C7.329 19.2031 7.166 19.3421 7.136 19.5311L6.004 26.7111C5.982 26.8531 6.091 26.9811 6.235 26.9811H7.572C7.763 26.9811 7.926 26.8421 7.956 26.6531L8.262 24.7161C8.292 24.5271 8.455 24.3881 8.646 24.3881H9.532C11.376 24.3881 12.441 23.4951 12.719 21.7261C12.844 20.9521 12.724 20.3441 12.362 19.9191C11.962 19.4511 11.257 19.2031 10.32 19.2031ZM10.643 21.8261C10.49 22.8311 9.722 22.8311 8.98 22.8311H8.557L8.853 20.9541C8.871 20.8411 8.969 20.7571 9.084 20.7571H9.278C9.783 20.7571 10.261 20.7571 10.507 21.0451C10.654 21.2181 10.699 21.4731 10.643 21.8261Z" fill="#113984"/>
<path d="M18.69 21.794H17.349C17.234 21.794 17.136 21.878 17.118 21.991L17.059 22.366C16.929 22.177 16.67 21.668 15.381 21.668C13.9 21.668 12.634 22.791 12.388 24.365C12.26 25.15 12.442 25.901 12.887 26.425C13.296 26.906 13.88 27.107 14.576 27.107C15.77 27.107 16.432 26.34 16.432 26.34L16.372 26.713C16.35 26.855 16.459 26.983 16.603 26.983H17.811C18.002 26.983 18.165 26.844 18.195 26.655L18.92 22.065C18.942 21.922 18.833 21.794 18.69 21.794ZM16.821 24.404C16.692 25.17 16.083 25.684 15.308 25.684C14.919 25.684 14.608 25.559 14.408 25.322C14.21 25.087 14.135 24.753 14.198 24.38C14.319 23.621 14.937 23.09 15.701 23.09C16.082 23.09 16.391 23.216 16.595 23.455C16.799 23.696 16.88 24.033 16.821 24.404Z" fill="#113984"/>
<path d="M38.662 21.794H37.321C37.206 21.794 37.108 21.878 37.09 21.991L37.031 22.366C36.901 22.177 36.642 21.668 35.353 21.668C33.872 21.668 32.606 22.791 32.36 24.365C32.232 25.15 32.414 25.901 32.859 26.425C33.268 26.906 33.852 27.107 34.548 27.107C35.742 27.107 36.404 26.34 36.404 26.34L36.344 26.713C36.322 26.855 36.431 26.983 36.575 26.983H37.783C37.974 26.983 38.137 26.844 38.167 26.655L38.892 22.065C38.915 21.922 38.805 21.794 38.662 21.794ZM36.793 24.404C36.663 25.17 36.055 25.684 35.28 25.684C34.891 25.684 34.58 25.559 34.38 25.322C34.182 25.087 34.107 24.753 34.17 24.38C34.291 23.621 34.909 23.09 35.673 23.09C36.054 23.09 36.363 23.216 36.567 23.455C36.771 23.696 36.852 24.033 36.793 24.404Z" fill="#009EE3"/>
<path d="M25.831 21.7939H24.483C24.354 21.7939 24.234 21.8579 24.161 21.9649L22.302 24.7029L21.514 22.0719C21.465 21.9069 21.313 21.7939 21.141 21.7939H19.816C19.656 21.7939 19.543 21.9509 19.595 22.1029L21.079 26.4589L19.683 28.4289C19.573 28.5839 19.684 28.7969 19.873 28.7969H21.219C21.347 28.7969 21.466 28.7339 21.539 28.6299L26.021 22.1609C26.13 22.0049 26.019 21.7939 25.831 21.7939Z" fill="#113984"/>
<path d="M40.242 19.4011L39.093 26.7131C39.071 26.8551 39.18 26.9831 39.324 26.9831H40.48C40.671 26.9831 40.834 26.8441 40.864 26.6551L41.997 19.4751C42.019 19.3331 41.91 19.2051 41.766 19.2051H40.472C40.358 19.2031 40.26 19.2871 40.242 19.4011Z" fill="#009EE3"/>
<path d="M100 7H60C58.3431 7 57 8.34315 57 10V38C57 39.6569 58.3431 41 60 41H100C101.657 41 103 39.6569 103 38V10C103 8.34315 101.657 7 100 7Z" fill="#1A1876"/>
<path d="M75.238 28.7996H77.847L79.48 19.2236H76.87L75.238 28.7996Z" fill="white"/>
<path d="M84.743 23.0688C83.831 22.6258 83.272 22.3298 83.278 21.8818C83.278 21.4818 83.751 21.0578 84.778 21.0578C85.5347 21.0388 86.2849 21.2024 86.965 21.5348L87.319 19.4598C86.5688 19.1891 85.7765 19.0537 84.979 19.0598C82.4 19.0598 80.579 20.3598 80.568 22.2198C80.554 23.5958 81.868 24.3638 82.855 24.8198C83.871 25.2888 84.213 25.5878 84.208 26.0068C84.201 26.6488 83.397 26.9428 82.646 26.9428C81.6745 26.9655 80.7132 26.74 79.853 26.2878L79.487 28.4308C80.4174 28.7746 81.4021 28.9477 82.394 28.9418C85.138 28.9418 86.919 27.6578 86.939 25.6708C86.944 24.5808 86.249 23.7518 84.743 23.0688Z" fill="white"/>
<path d="M94.007 19.2332H91.99C91.7065 19.1969 91.419 19.255 91.1719 19.3985C90.9248 19.542 90.7319 19.763 90.623 20.0272L86.747 28.8002H89.488C89.488 28.8002 89.936 27.6202 90.037 27.3612H93.38C93.458 27.6972 93.698 28.7962 93.698 28.7962H96.12L94.007 19.2332ZM90.789 25.4062C90.897 25.1292 91.962 22.3942 92.175 21.8152C92.527 23.4652 92.184 21.8642 92.955 25.4062H90.789Z" fill="white"/>
<path d="M73.049 19.2311L70.493 25.7611L70.221 24.4341L69.306 20.0341C69.2393 19.7792 69.0828 19.557 68.8652 19.4083C68.6477 19.2597 68.3837 19.1946 68.122 19.2251H63.913L63.88 19.4251C64.837 19.6509 65.7593 20.0044 66.622 20.4761L68.942 28.7931H71.704L75.813 19.2351L73.049 19.2311Z" fill="white"/>
<path d="M156 7H116C114.343 7 113 8.34315 113 10V38C113 39.6569 114.343 41 116 41H156C157.657 41 159 39.6569 159 38V10C159 8.34315 157.657 7 156 7Z" fill="#243747"/>
<path d="M131 32C135.418 32 139 28.4183 139 24C139 19.5817 135.418 16 131 16C126.582 16 123 19.5817 123 24C123 28.4183 126.582 32 131 32Z" fill="#E61C24"/>
<path d="M140.934 32C145.352 32 148.934 28.4183 148.934 24C148.934 19.5817 145.352 16 140.934 16C136.516 16 132.934 19.5817 132.934 24C132.934 28.4183 136.516 32 140.934 32Z" fill="#F99F1B"/>
<path d="M135.967 17.7363C135.021 18.4838 134.257 19.4357 133.732 20.5205C133.207 21.6053 132.934 22.795 132.934 24.0003C132.934 25.2056 133.207 26.3953 133.732 27.4802C134.257 28.565 135.021 29.5168 135.967 30.2643C136.913 29.5168 137.677 28.565 138.202 27.4802C138.727 26.3953 139 25.2056 139 24.0003C139 22.795 138.727 21.6053 138.202 20.5205C137.677 19.4357 136.913 18.4838 135.967 17.7363Z" fill="#F26622"/>
<path d="M215 23.807V10C215 8.343 213.657 7 212 7H172C170.343 7 169 8.343 169 10V38C169 39.657 170.343 41 172 41H182.589C198.229 38.811 211.003 30.094 215 23.807Z" fill="white"/>
<path d="M215 37.9996V23.8066C211.003 30.0936 198.229 38.8106 182.589 40.9996H212C213.657 40.9996 215 39.6566 215 37.9996Z" fill="#E6E6E6"/>
<path d="M215 37.9996V23.8066C211.003 30.0936 198.229 38.8106 182.589 40.9996H212C213.657 40.9996 215 39.6566 215 37.9996Z" fill="#FB9144"/>
<path d="M193.029 21.0127C191.339 21.0127 189.967 22.3327 189.967 23.9637C189.967 25.6977 191.279 26.9917 193.029 26.9917C194.737 26.9917 196.083 25.6787 196.083 23.9967C196.084 22.3247 194.747 21.0127 193.029 21.0127Z" fill="#FB9144"/>
<path d="M175.646 21.1211H174V26.8641H175.636C176.507 26.8641 177.135 26.6571 177.686 26.2001C178.34 25.6591 178.729 24.8411 178.729 23.9941C178.728 22.2981 177.462 21.1211 175.646 21.1211ZM176.956 25.4341C176.6 25.7521 176.146 25.8911 175.421 25.8911H175.121V22.0931H175.422C176.147 22.0931 176.583 22.2231 176.957 22.5571C177.342 22.9021 177.574 23.4351 177.574 23.9861C177.573 24.5391 177.342 25.0911 176.956 25.4341Z" fill="black"/>
<path d="M180.361 21.1211H179.245V26.8641H180.361V21.1211Z" fill="black"/>
<path d="M183.102 23.3224C182.428 23.0754 182.231 22.9104 182.231 22.6004C182.231 22.2394 182.583 21.9654 183.067 21.9654C183.402 21.9654 183.679 22.0994 183.973 22.4274L184.556 21.6634C184.075 21.2394 183.498 21.0254 182.87 21.0254C181.854 21.0254 181.079 21.7324 181.079 22.6674C181.079 23.4614 181.439 23.8644 182.49 24.2464C182.929 24.3994 183.152 24.5034 183.266 24.5744C183.49 24.7194 183.601 24.9264 183.601 25.1664C183.601 25.6334 183.231 25.9774 182.73 25.9774C182.197 25.9774 181.766 25.7104 181.508 25.2094L180.786 25.9094C181.302 26.6654 181.921 27.0034 182.774 27.0034C183.937 27.0034 184.756 26.2254 184.756 25.1164C184.757 24.2024 184.377 23.7884 183.102 23.3224Z" fill="black"/>
<path d="M185.108 23.9942C185.108 25.6832 186.434 26.9922 188.14 26.9922C188.621 26.9922 189.034 26.8972 189.542 26.6572V25.3372C189.093 25.7882 188.699 25.9662 188.189 25.9662C187.061 25.9662 186.262 25.1502 186.262 23.9862C186.262 22.8862 187.087 22.0142 188.139 22.0142C188.67 22.0142 189.076 22.2022 189.541 22.6602V21.3422C189.05 21.0942 188.647 20.9912 188.162 20.9912C186.467 20.9912 185.108 22.3252 185.108 23.9942Z" fill="black"/>
<path d="M198.617 24.9771L197.086 21.1211H195.864L198.299 27.0091H198.9L201.382 21.1211H200.17L198.617 24.9771Z" fill="black"/>
<path d="M201.89 26.8641H205.066V25.8911H203.011V24.3411H204.988V23.3681H203.011V22.0931H205.066V21.1211H201.89V26.8641Z" fill="black"/>
<path d="M209.5 22.8151C209.5 21.7391 208.762 21.1201 207.469 21.1201H205.805V26.8631H206.928V24.5541H207.074L208.621 26.8631H210L208.193 24.4421C209.037 24.2711 209.5 23.6941 209.5 22.8151ZM207.254 23.7621H206.929V22.0251H207.272C207.972 22.0251 208.347 22.3191 208.347 22.8781C208.347 23.4521 207.972 23.7621 207.254 23.7621Z" fill="black"/>
<path d="M268 7H228C226.343 7 225 8.343 225 10V38C225 39.657 226.343 41 228 41H268C269.657 41 271 39.657 271 38V10C271 8.343 269.657 7 268 7Z" fill="#007AC6"/>
<path d="M234.533 24.429H236.863L235.698 21.572L234.533 24.429ZM267 19H261.031L259.575 20.571L258.264 19H245.598L244.433 21.571L243.268 19H238.172V20.143L237.59 19H233.222L229 29H234.096L234.678 27.429H236.134L236.716 29H242.394V27.857L242.831 29H245.743L246.18 27.714V29H257.828L259.284 27.429L260.594 29H266.563L262.778 24L267 19ZM249.383 27.571H247.781V22L245.306 27.571H243.85L241.375 22V27.571H238.026L237.444 26H233.95L233.368 27.571H231.475L234.532 20.428H237.007L239.773 27.142V20.428H242.539L244.723 25.285L246.761 20.428H249.527V27.571H249.383ZM263.797 27.571H261.613L259.72 25.142L257.536 27.571H250.984V20.428H257.681L259.719 22.714L261.903 20.428H263.941L260.739 24L263.797 27.571ZM252.586 21.857V23.143H256.226V24.572H252.586V26H256.663L258.556 23.857L256.809 21.857H252.586Z" fill="white"/>
</svg>
