<svg width="182" height="38" viewBox="0 0 182 38" fill="none" xmlns="http://www.w3.org/2000/svg">
<path d="M3.19115 37.6855C2.19835 37.6855 1.47148 37.5283 1.01053 37.2138C0.549587 36.9343 0.265929 36.5499 0.159558 36.0607C0.0531859 35.5715 0 35.0299 0 34.4359V4.19311C0 3.00506 0.230472 2.18391 0.691417 1.72965C1.18782 1.2754 2.07425 1.04828 3.35071 1.04828H24.0932C24.696 1.04828 25.2278 1.11816 25.6888 1.25793C26.1497 1.36276 26.522 1.6423 26.8057 2.09655C27.0893 2.51586 27.2312 3.23219 27.2312 4.24552C27.2312 5.22391 27.0716 5.94023 26.7525 6.39448C26.4688 6.84874 26.0788 7.12828 25.5824 7.2331C25.1215 7.33793 24.5896 7.39035 23.9868 7.39035H6.43549V16.1959H18.5087C19.1115 16.1959 19.6256 16.2657 20.0511 16.4055C20.512 16.5103 20.8489 16.7724 21.0616 17.1917C21.3098 17.5761 21.4339 18.2225 21.4339 19.131C21.4339 19.9697 21.3098 20.5986 21.0616 21.0179C20.8134 21.4023 20.4588 21.6469 19.9979 21.7517C19.5724 21.8216 19.0583 21.8566 18.4555 21.8566H6.43549V34.4883C6.43549 35.0823 6.36458 35.6239 6.22275 36.1131C6.11638 36.5674 5.83272 36.9343 5.37177 37.2138C4.91083 37.5283 4.18396 37.6855 3.19115 37.6855Z" fill="#B87D58"/>
<path d="M31.5089 37.6855C30.5515 37.6855 29.8424 37.5283 29.3815 37.2138C28.956 36.9343 28.69 36.5499 28.5837 36.0607C28.4773 35.5715 28.4241 35.0299 28.4241 34.4359V14.9903C28.4241 14.3614 28.4773 13.8198 28.5837 13.3655C28.69 12.8763 28.956 12.5094 29.3815 12.2648C29.8424 11.9853 30.5693 11.8455 31.5621 11.8455C32.5194 11.8455 33.2108 11.9678 33.6363 12.2124C34.0973 12.457 34.3809 12.7715 34.4873 13.1559C34.6291 13.5053 34.7 13.8547 34.7 14.2041L34.2746 15.1476C34.4518 14.868 34.7 14.5361 35.0192 14.1517C35.3383 13.7324 35.7638 13.3306 36.2956 12.9462C36.8275 12.5269 37.4657 12.1949 38.2103 11.9503C38.9549 11.6708 39.8414 11.531 40.8696 11.531C41.2951 11.531 41.7383 11.5834 42.1993 11.6883C42.6957 11.7582 43.1743 11.8805 43.6353 12.0552C44.1317 12.1949 44.5749 12.3871 44.9649 12.6317C45.355 12.8763 45.6563 13.1733 45.8691 13.5228C46.0818 13.8372 46.1882 14.2041 46.1882 14.6235C46.1882 15.7416 45.9045 16.6851 45.3372 17.4538C44.7699 18.2225 44.0962 18.6069 43.3162 18.6069C42.7843 18.6069 42.3943 18.5545 42.1461 18.4497C41.8979 18.3448 41.6851 18.2225 41.5078 18.0828C41.366 17.943 41.1355 17.8207 40.8164 17.7159C40.5328 17.611 40.0718 17.5586 39.4336 17.5586C38.9017 17.5586 38.3521 17.646 37.7848 17.8207C37.253 17.9954 36.7566 18.2575 36.2956 18.6069C35.8347 18.9563 35.4624 19.4106 35.1787 19.9697C34.8951 20.4938 34.7532 21.1053 34.7532 21.8041V34.5407C34.7532 35.1347 34.7 35.6763 34.5937 36.1655C34.4873 36.6198 34.2036 36.9867 33.7427 37.2662C33.2818 37.5457 32.5372 37.6855 31.5089 37.6855Z" fill="#B87D58"/>
<path d="M60.4295 38C58.1248 38 56.1038 37.6331 54.3664 36.8993C52.6644 36.1655 51.2284 35.1697 50.0583 33.9117C48.9237 32.6189 48.055 31.1862 47.4522 29.6138C46.8849 28.0064 46.6012 26.3467 46.6012 24.6345C46.6012 22.1186 47.1863 19.8823 48.3563 17.9255C49.5264 15.9687 51.1397 14.4313 53.1963 13.3131C55.2882 12.1949 57.6816 11.6359 60.3764 11.6359C62.291 11.6359 63.9753 11.9329 65.429 12.5269C66.8828 13.1209 68.0883 13.9071 69.0457 14.8855C70.0385 15.829 70.7831 16.8772 71.2795 18.0303C71.8113 19.1834 72.0773 20.3016 72.0773 21.3848C72.0773 23.2368 71.6163 24.5821 70.6944 25.4207C69.808 26.2593 68.6911 26.6786 67.3437 26.6786H53.3026C53.3381 27.8667 53.7104 28.8975 54.4195 29.771C55.1641 30.6446 56.086 31.326 57.1852 31.8152C58.3198 32.2694 59.4722 32.4966 60.6423 32.4966C61.5287 32.4966 62.3088 32.4441 62.9825 32.3393C63.6916 32.2345 64.2944 32.1122 64.7908 31.9724C65.2872 31.7977 65.7127 31.623 66.0673 31.4483C66.4573 31.2736 66.8119 31.1163 67.131 30.9766C67.4501 30.8368 67.7515 30.7494 68.0351 30.7145C68.4252 30.6795 68.8152 30.7669 69.2052 30.9766C69.5952 31.1862 69.9144 31.5531 70.1626 32.0772C70.3753 32.4267 70.5171 32.7586 70.5881 33.0731C70.6944 33.3526 70.7476 33.6322 70.7476 33.9117C70.7476 34.6106 70.3221 35.2745 69.4711 35.9035C68.6202 36.4975 67.4146 36.9867 65.8545 37.371C64.3298 37.7903 62.5215 38 60.4295 38ZM53.3026 22.9572H64.2057C64.8085 22.9572 65.2695 22.8699 65.5886 22.6952C65.9077 22.4855 66.0673 22.0662 66.0673 21.4372C66.0673 20.6336 65.819 19.9172 65.3226 19.2883C64.8262 18.6244 64.1526 18.1177 63.3016 17.7683C62.4506 17.3839 61.4578 17.1917 60.3232 17.1917C59.0113 17.1917 57.8234 17.4538 56.7597 17.9779C55.696 18.4671 54.845 19.1485 54.2068 20.0221C53.604 20.8956 53.3026 21.874 53.3026 22.9572Z" fill="#B87D58"/>
<path d="M86.6535 37.6331C85.0225 37.6331 83.4801 37.3012 82.0263 36.6372C80.5726 35.9733 79.2961 35.0648 78.197 33.9117C77.0978 32.7237 76.2291 31.3435 75.5909 29.771C74.9526 28.1637 74.6335 26.4515 74.6335 24.6345C74.6335 22.8874 74.9526 21.2451 75.5909 19.7076C76.2291 18.1352 77.0978 16.7724 78.197 15.6193C79.3316 14.4313 80.6258 13.5053 82.0795 12.8414C83.5333 12.1775 85.0579 11.8455 86.6535 11.8455C88.3555 11.8455 89.8801 12.1775 91.2275 12.8414C92.5749 13.5053 93.7095 14.4313 94.6314 15.6193C95.5887 16.7724 96.3156 18.1352 96.812 19.7076C97.3084 21.2451 97.5743 22.9048 97.6098 24.6869C97.6098 26.469 97.3616 28.1462 96.8652 29.7186C96.4043 31.2561 95.6951 32.6189 94.7378 33.8069C93.8159 34.9949 92.6635 35.9384 91.2807 36.6372C89.9333 37.3012 88.3909 37.6331 86.6535 37.6331ZM87.5045 31.5007C88.7455 31.5007 89.8447 31.2212 90.802 30.6621C91.7948 30.068 92.5749 29.2644 93.1422 28.251C93.745 27.2377 94.0463 26.0846 94.0463 24.7917C94.0463 23.4639 93.745 22.2933 93.1422 21.28C92.5749 20.2667 91.7948 19.463 90.802 18.869C89.8447 18.2749 88.7455 17.9779 87.5045 17.9779C86.2635 17.9779 85.1466 18.2749 84.1538 18.869C83.161 19.428 82.3632 20.2317 81.7604 21.28C81.1931 22.2933 80.9094 23.4639 80.9094 24.7917C80.9094 26.0846 81.1931 27.2377 81.7604 28.251C82.3632 29.2644 83.161 30.068 84.1538 30.6621C85.182 31.2212 86.2989 31.5007 87.5045 31.5007ZM97.3439 37.6331C96.3511 37.6331 95.6242 37.4759 95.1633 37.1614C94.7023 36.812 94.4009 36.2703 94.2591 35.5366V3.24966C94.2591 2.65563 94.2945 2.13149 94.3655 1.67724C94.4718 1.18805 94.7378 0.803678 95.1633 0.524137C95.6242 0.209657 96.3333 0.0524162 97.2907 0.0524162C98.3189 0.0524162 99.0458 0.192186 99.4713 0.471724C99.8968 0.751265 100.163 1.13563 100.269 1.62483C100.411 2.07908 100.482 2.60322 100.482 3.19724V34.4359C100.482 35.0299 100.429 35.5715 100.322 36.0607C100.216 36.5499 99.9323 36.9343 99.4713 37.2138C99.0458 37.4933 98.3367 37.6331 97.3439 37.6331Z" fill="#B87D58"/>
<path d="M116.88 38C115.178 38 113.511 37.6855 111.88 37.0566C110.285 36.3926 108.831 35.4667 107.519 34.2786C106.243 33.0906 105.214 31.6929 104.434 30.0855C103.69 28.4782 103.317 26.7136 103.317 24.7917C103.317 22.9398 103.672 21.2101 104.381 19.6028C105.09 17.9954 106.065 16.5802 107.306 15.3572C108.547 14.1343 109.966 13.1908 111.561 12.5269C113.192 11.828 114.93 11.4786 116.773 11.4786C119.255 11.4786 121.507 12.0726 123.528 13.2607C125.549 14.4138 127.162 15.9862 128.368 17.9779C129.573 19.9697 130.176 22.2234 130.176 24.7393C130.176 26.731 129.804 28.548 129.059 30.1903C128.315 31.7977 127.304 33.1954 126.028 34.3834C124.751 35.5366 123.315 36.4276 121.72 37.0566C120.16 37.6855 118.546 38 116.88 38ZM116.773 31.8152C117.943 31.8152 119.06 31.5356 120.124 30.9766C121.223 30.3825 122.11 29.5439 122.783 28.4607C123.492 27.3775 123.847 26.1021 123.847 24.6345C123.847 23.2717 123.528 22.0662 122.89 21.0179C122.287 19.9697 121.454 19.1485 120.39 18.5545C119.326 17.9605 118.103 17.6635 116.72 17.6635C115.408 17.6635 114.22 17.9779 113.157 18.6069C112.093 19.2009 111.242 20.0395 110.604 21.1228C110.001 22.171 109.7 23.3591 109.7 24.6869C109.7 26.1545 110.036 27.4299 110.71 28.5131C111.384 29.5614 112.253 30.3825 113.316 30.9766C114.415 31.5356 115.568 31.8152 116.773 31.8152Z" fill="#B87D58"/>
<path d="M154.141 32.0248C155.063 32.7936 155.542 33.5099 155.577 34.1738C155.648 34.8377 155.294 35.6064 154.514 36.48C153.911 37.1439 153.379 37.5807 152.918 37.7903C152.457 38 151.996 38 151.535 37.7903C151.074 37.6156 150.525 37.2662 149.887 36.7421L139.728 28.3034V34.5407C139.728 35.0998 139.657 35.6239 139.515 36.1131C139.409 36.6023 139.125 36.9867 138.664 37.2662C138.239 37.5457 137.53 37.6855 136.537 37.6855C135.544 37.6855 134.817 37.5283 134.356 37.2138C133.931 36.9343 133.665 36.5499 133.558 36.0607C133.452 35.5715 133.399 35.0474 133.399 34.4883V3.19724C133.399 2.60322 133.452 2.07908 133.558 1.62483C133.7 1.13563 133.984 0.751265 134.409 0.471724C134.87 0.157241 135.597 0 136.59 0C137.583 0 138.292 0.157241 138.717 0.471724C139.143 0.751265 139.409 1.13563 139.515 1.62483C139.657 2.07908 139.728 2.62069 139.728 3.24966V20.4414L147.068 13.4179C147.635 12.8938 148.167 12.5444 148.663 12.3697C149.16 12.16 149.638 12.1425 150.099 12.3172C150.596 12.457 151.11 12.8239 151.642 13.4179C152.528 14.3614 152.954 15.1476 152.918 15.7766C152.883 16.3706 152.439 17.0869 151.588 17.9255L144.408 24.4772L154.141 32.0248Z" fill="#B87D58"/>
<path d="M178.862 37.5807C177.834 37.5807 177.071 37.3885 176.575 37.0041C176.079 36.6198 175.83 36.0956 175.83 35.4317L176.203 33.7021C175.919 34.1563 175.44 34.6979 174.767 35.3269C174.093 35.9209 173.207 36.4625 172.107 36.9517C171.008 37.406 169.679 37.6331 168.118 37.6331C166.452 37.6331 164.874 37.3012 163.385 36.6372C161.931 35.9384 160.637 34.9949 159.502 33.8069C158.403 32.5839 157.517 31.2037 156.843 29.6662C156.205 28.0938 155.886 26.4166 155.886 24.6345C155.886 22.9223 156.205 21.3149 156.843 19.8124C157.517 18.2749 158.421 16.9122 159.556 15.7241C160.69 14.5361 161.984 13.6101 163.438 12.9462C164.927 12.2474 166.487 11.8979 168.118 11.8979C169.572 11.8979 170.796 12.0901 171.788 12.4745C172.817 12.8589 173.685 13.348 174.394 13.9421C175.104 14.5012 175.689 15.0952 176.15 15.7241L175.83 14.2041C175.83 13.4354 176.079 12.8589 176.575 12.4745C177.071 12.0552 177.852 11.8455 178.915 11.8455C179.908 11.8455 180.617 12.0028 181.043 12.3172C181.468 12.5968 181.734 12.9986 181.84 13.5228C181.947 14.012 182 14.571 182 15.2V34.3834C182 34.9775 181.947 35.5191 181.84 36.0083C181.734 36.4975 181.45 36.8818 180.989 37.1614C180.564 37.4409 179.855 37.5807 178.862 37.5807ZM169.076 31.5007C170.281 31.5007 171.363 31.2037 172.32 30.6097C173.278 30.0156 174.04 29.212 174.607 28.1986C175.21 27.1503 175.511 25.9972 175.511 24.7393C175.511 23.3766 175.21 22.1885 174.607 21.1752C174.004 20.1618 173.207 19.3756 172.214 18.8166C171.256 18.2225 170.175 17.9255 168.969 17.9255C167.658 17.9255 166.487 18.24 165.459 18.869C164.431 19.463 163.615 20.2841 163.013 21.3324C162.445 22.3457 162.162 23.4989 162.162 24.7917C162.162 26.0497 162.463 27.1853 163.066 28.1986C163.669 29.212 164.484 30.0156 165.512 30.6097C166.576 31.2037 167.764 31.5007 169.076 31.5007Z" fill="#B87D58"/>
</svg>
